<svg xmlns="http://www.w3.org/2000/svg" height="39.58" width="39.61"><path d="M2.33 28.95c.87-.8 1.74-1.73 2.72-2.52 1.35-1.1 3.23-.95 4.57.33 1.12 1.07 2.15 2.22 3.29 3.26 2.87 2.6 7.06 1.63 7.97-1.85.5-1.93-.18-3.58-1.5-4.98-.9-.96-1.85-1.86-2.77-2.8-.26-.25-.52-.5-.74-.8-1-1.27-1.05-2.94-.17-3.87.86-.9 2.65-.97 3.87.04 1.19.98 2.22 2.13 3.34 3.2.46.42.92.88 1.45 1.2 1.93 1.22 4.33 1.04 5.78-.37 1.55-1.5 1.8-3.83.55-5.87-.4-.65-.92-1.23-1.46-1.78-3.58-3.6-7.17-7.18-10.76-10.77-.34-.34-.66-.7-1.04-1.1 6.98-1.4 17.9 2.67 21.33 13.75A19.84 19.84 0 0127.1 38.2a19.73 19.73 0 01-24.77-9.24z"/><path d="M1.86 27.49c-2.14-4.66-2.4-9.1-.96-13.57C2.97 7.44 7.32 3.12 13.75.9c.86-.3 1.46-.25 2.15.45 4.1 4.18 8.26 8.3 12.39 12.43.13.13.26.25.38.39 1.24 1.38 1.35 3.22.26 4.3-1.06 1.03-2.86.96-4.2-.25-1.06-.98-2-2.1-3.1-3.05a9.3 9.3 0 00-2.58-1.67 4.03 4.03 0 00-4.62.97c-1.28 1.32-1.46 2.92-.84 4.54a8.1 8.1 0 001.52 2.36c1 1.16 2.2 2.17 3.2 3.33 1.16 1.33 1.17 3.2.17 4.22-1.03 1.03-2.86 1.04-4.21-.12-1.13-.97-2.15-2.08-3.21-3.14-2.42-2.4-5.42-2.41-7.8-.01-.54.54-.94 1.22-1.4 1.83z"/></svg>
